<svg width="183" height="431" viewBox="0 0 183 431" fill="none" xmlns="http://www.w3.org/2000/svg">
<path fill-rule="evenodd" clip-rule="evenodd" d="M183 130.376C163.675 114.518 138.949 105 112 105C50.1441 105 0 155.144 0 217C0 278.856 50.1441 329 112 329C138.949 329 163.675 319.482 183 303.624L183 130.376Z" fill="url(#paint0_linear)"/>
<path fill-rule="evenodd" clip-rule="evenodd" d="M92 106.521C143.315 97.9937 182.514 53.6201 182.995 0L183 0L183 431H182.928C181.042 378.732 142.355 335.847 92 327.479L92 106.521Z" fill="url(#paint1_linear)"/>
<path d="M106.264 189.717H78.3742V173.289C78.3742 172.028 77.6523 170.878 76.517 170.326C75.3752 169.78 74.0299 169.925 73.0455 170.72L40.2337 197.005C39.4528 197.636 39 198.575 39 199.574C39 200.573 39.4528 201.513 40.2272 202.143L73.039 228.428C73.6362 228.901 74.3646 229.144 75.093 229.144C75.5786 229.144 76.0642 229.039 76.517 228.822C77.6523 228.27 78.3742 227.12 78.3742 225.859V209.431H106.96C115.543 209.431 123.366 215.608 124.225 224.157C125.216 233.987 117.519 242.287 107.905 242.287H81.6554C79.8442 242.287 78.3742 243.758 78.3742 245.572V258.714C78.3742 260.528 79.8442 262 81.6554 262H107.905C128.99 262 145.94 243.752 143.821 222.212C141.963 203.444 125.098 189.717 106.264 189.717Z" fill="white"/>
<defs>
<linearGradient id="paint0_linear" x1="91.5" y1="105" x2="91.5" y2="329" gradientUnits="userSpaceOnUse">
<stop stop-color="#84FAB0"/>
<stop offset="1" stop-color="#8FD3F4"/>
</linearGradient>
<linearGradient id="paint1_linear" x1="137.5" y1="0" x2="137.5" y2="431" gradientUnits="userSpaceOnUse">
<stop stop-color="#84FAB0"/>
<stop offset="1" stop-color="#8FD3F4"/>
</linearGradient>
</defs>
</svg>
